<?xml version="1.0" standalone="no"?>
<!DOCTYPE svg PUBLIC "-//W3C//DTD SVG 20010904//EN"
 "http://www.w3.org/TR/2001/REC-SVG-20010904/DTD/svg10.dtd">
<svg version="1.0" xmlns="http://www.w3.org/2000/svg"
 width="1003.000000pt" height="1003.000000pt" viewBox="0 0 1003.000000 1003.000000"
 preserveAspectRatio="xMidYMid meet">
<metadata>
Created by potrace 1.11, written by Peter Selinger 2001-2013
</metadata>
<g transform="translate(0.000000,1003.000000) scale(0.100000,-0.100000)"
fill="#000000" stroke="none">
<path d="M4418 8357 c-26 -18 -73 -47 -105 -66 -166 -97 -345 -200 -703 -404
-597 -340 -948 -543 -1230 -712 -220 -131 -697 -409 -1335 -776 -248 -143
-307 -185 -323 -234 -29 -87 -34 -379 -26 -1535 5 -630 9 -1184 9 -1232 0 -65
4 -91 16 -103 18 -19 -39 16 1084 -655 689 -412 846 -504 1449 -850 898 -515
1014 -583 1063 -623 55 -44 88 -47 143 -12 26 16 40 33 42 51 2 20 12 29 38
38 59 20 380 189 791 417 212 118 402 223 422 234 52 28 231 128 997 555 371
207 747 417 835 465 88 48 216 120 285 160 69 40 217 123 330 185 113 62 286
159 385 215 266 151 544 300 670 359 61 29 143 72 184 95 59 35 79 42 105 37
43 -8 71 14 84 66 14 59 16 2121 2 2463 -14 329 -21 383 -55 410 -14 12 -25
28 -25 37 0 23 -39 48 -75 48 -39 0 -88 29 -216 126 -58 44 -165 112 -241 152
-75 39 -177 96 -228 127 -172 104 -250 145 -362 191 -69 28 -121 55 -134 71
-19 22 -26 24 -65 18 -27 -4 -52 -15 -64 -30 -11 -12 -128 -80 -260 -150 -315
-168 -817 -447 -881 -491 l-51 -34 -144 83 c-79 46 -250 146 -379 222 -129 75
-349 202 -488 282 -140 79 -432 248 -650 375 -219 127 -471 271 -562 321 -91
49 -179 101 -197 114 -42 31 -78 28 -135 -10z m240 -196 c92 -54 388 -223 659
-374 271 -152 570 -321 665 -375 95 -54 281 -159 413 -232 132 -73 308 -170
391 -216 147 -82 177 -94 189 -75 3 5 27 17 54 26 54 18 512 270 903 496 l257
149 118 -55 c144 -68 225 -110 368 -190 61 -34 169 -92 241 -128 74 -38 187
-107 261 -161 71 -51 151 -103 178 -115 56 -25 65 -35 65 -73 0 -33 3 -33 41
-11 15 9 31 15 34 12 3 -3 0 -71 -6 -150 -7 -94 -10 -462 -7 -1069 2 -509 3
-1053 3 -1210 l-1 -284 -54 -32 c-30 -17 -93 -52 -140 -79 -47 -26 -107 -64
-135 -85 -52 -38 -355 -211 -775 -442 -135 -75 -310 -171 -390 -215 -1336
-741 -1742 -966 -1935 -1073 -126 -71 -237 -132 -246 -135 -15 -6 -17 35 -23
457 -9 568 -3 2179 7 2195 4 7 0 24 -9 38 -11 17 -14 35 -10 60 7 38 0 43 -29
21 -16 -12 -25 -11 -61 4 -106 46 -1099 588 -1099 600 0 5 95 63 211 129 116
66 364 215 550 332 299 187 374 232 434 259 8 4 15 18 15 30 0 18 -16 33 -75
67 -41 25 -84 53 -95 63 -11 10 -47 34 -80 54 -33 20 -89 55 -125 78 -126 80
-1656 949 -1932 1097 -54 29 -98 56 -98 60 0 8 855 519 935 559 22 11 67 36
99 56 33 20 61 36 63 36 2 0 79 -45 171 -99z m-1289 -675 c157 -97 1313 -759
1826 -1046 139 -78 358 -190 429 -220 30 -12 46 -24 40 -29 -5 -5 -63 -41
-129 -79 -366 -210 -633 -368 -730 -430 -231 -149 -311 -199 -337 -210 -33
-14 -38 -51 -10 -74 19 -16 122 -75 562 -320 162 -91 366 -205 452 -254 l158
-89 -93 -45 c-110 -54 -218 -116 -349 -202 -53 -35 -135 -87 -182 -116 -51
-32 -83 -58 -80 -64 4 -7 2 -8 -4 -4 -16 10 -54 -12 -46 -26 4 -7 3 -8 -4 -4
-14 8 -194 -93 -186 -105 3 -5 -1 -7 -8 -4 -7 3 -49 -15 -92 -40 -44 -25 -86
-45 -93 -45 -8 0 -29 11 -46 24 -18 13 -77 48 -132 77 -145 76 -655 368 -985
564 -58 34 -156 90 -217 123 -62 34 -220 124 -350 200 -370 216 -874 492
-1198 655 -104 53 -262 139 -349 191 -88 53 -196 109 -240 126 -118 44 -166
68 -166 83 0 7 30 28 68 46 37 18 150 82 252 141 102 59 385 225 630 368 245
143 558 323 695 400 138 77 374 213 524 301 151 89 281 161 289 161 8 0 53
-24 101 -54z m2316 -2847 c11 -16 1 -19 -13 -3 -7 8 -8 14 -3 14 5 0 13 -5 16
-11z m-18 -571 c-1 -79 -3 -17 -3 137 0 154 2 218 3 143 2 -75 2 -201 0 -280z
m10 -510 c-1 -62 -3 -14 -3 107 0 121 2 172 3 113 2 -59 2 -158 0 -220z m10
-1071 c-1 -150 -2 -24 -2 278 0 303 1 425 2 272 2 -153 2 -401 0 -550z m-8
-494 c-7 -8 -31 -23 -53 -34 -44 -21 -27 -5 23 23 l31 17 2 108 2 108 3 -104
c3 -71 0 -108 -8 -118z m-99 -57 c0 -2 -127 -75 -282 -162 -356 -198 -415
-229 -406 -219 6 6 678 384 686 385 1 0 2 -2 2 -4z m-700 -390 c0 -2 -44 -29
-97 -61 -114 -68 -120 -71 -110 -60 6 8 199 125 205 125 1 0 2 -2 2 -4z m-220
-131 c0 -2 -10 -9 -22 -15 -22 -11 -22 -10 -4 4 21 17 26 19 26 11z m-65 -41
c-26 -20 -55 -36 -55 -30 0 5 63 46 70 46 3 -1 -4 -8 -15 -16z"/>
<path d="M9273 6884 c-24 -14 -43 -28 -43 -31 0 -4 85 42 99 53 16 14 -22 -1
-56 -22z"/>
<path d="M7124 5624 c-18 -14 -18 -15 4 -4 12 6 22 13 22 15 0 8 -5 6 -26 -11z"/>
<path d="M7054 5584 c-18 -14 -18 -15 4 -4 12 6 22 13 22 15 0 8 -5 6 -26 -11z"/>
<path d="M6175 5089 c-71 -39 -134 -75 -139 -79 -18 -18 98 32 138 59 23 15
62 40 89 55 39 22 56 36 45 36 -2 0 -61 -32 -133 -71z"/>
<path d="M3150 6742 c-153 -102 -420 -269 -670 -420 -201 -121 -248 -153 -262
-181 -33 -66 -17 -78 442 -331 113 -62 233 -132 267 -156 41 -29 81 -48 115
-55 51 -10 55 -9 103 21 28 17 178 111 335 209 462 288 546 345 558 379 8 25
7 37 -10 69 -11 21 -30 48 -41 59 -23 23 -358 232 -567 354 -69 41 -136 82
-149 92 -13 10 -26 18 -30 18 -3 -1 -44 -26 -91 -58z m-770 -628 c0 -2 -9 0
-20 6 -11 6 -20 13 -20 16 0 2 9 0 20 -6 11 -6 20 -13 20 -16z m230 -140 c0
-2 -9 0 -20 6 -11 6 -20 13 -20 16 0 2 9 0 20 -6 11 -6 20 -13 20 -16z m570
-188 c0 -2 -8 -10 -17 -17 -16 -13 -17 -12 -4 4 13 16 21 21 21 13z m-40 -30
c0 -2 -8 -10 -17 -17 -16 -13 -17 -12 -4 4 13 16 21 21 21 13z m-53 -43 c-14
-14 -19 -15 -29 -4 -11 10 -10 11 3 6 10 -4 20 -2 24 4 3 6 9 11 13 11 3 0 -1
-8 -11 -17z"/>
</g>
</svg>
